HIERARCHY
ROOT Hips
{
	OFFSET 0.000000 0.000000 0.000000 
	CHANNELS 6 Xposition Yposition Zposition Zrotation Yrotation Xrotation
	JOINT LeftUpLeg
	{
		OFFSET 0.000000 0.000000 0.000000 
		CHANNELS 3 Zrotation Yrotation Xrotation
		JOINT LeftLeg
		{
			OFFSET 3.811170 -8.520760 0.839290 
			CHANNELS 3 Zrotation Yrotation Xrotation
			JOINT LeftFoot
			{
				OFFSET 2.562200 -7.039590 0.000000 
				CHANNELS 3 Zrotation Yrotation Xrotation
				JOINT LeftToeBase
				{
					OFFSET 0.157640 -0.433110 2.322550 
					CHANNELS 3 Zrotation Yrotation Xrotation
					End Site
					{
						OFFSET 0.000000 0.000000 0.000000 
					}
				}
			}
		}
	}
	JOINT RigthUpLeg
	{
		OFFSET 0.000000 0.000000 0.000000 
		CHANNELS 3 Zrotation Yrotation Xrotation
		JOINT RightLeg
		{
			OFFSET -3.848050 -8.780180 0.839290 
			CHANNELS 3 Zrotation Yrotation Xrotation
			JOINT RightFoot
			{
				OFFSET -2.568260 -7.056230 0.000000 
				CHANNELS 3 Zrotation Yrotation Xrotation
				JOINT RightToeBase
				{
					OFFSET -0.164730 -0.452590 2.363150 
					CHANNELS 3 Zrotation Yrotation Xrotation
					End Site
					{
						OFFSET 0.000000 0.000000 0.000000 
					}
				}
			}
		}
	}
	JOINT Spine
	{
		OFFSET 0.028270 2.035590 -0.193380 
		CHANNELS 3 Zrotation Yrotation Xrotation
		JOINT Spine1
		{
			OFFSET 0.056720 2.048850 -0.042750 
			CHANNELS 3 Zrotation Yrotation Xrotation
			JOINT Neck1
			{
				OFFSET -0.054170 1.746240 0.172020 
				CHANNELS 3 Zrotation Yrotation Xrotation
				JOINT Head
				{
					OFFSET 0.104070 1.761360 -0.123970 
					CHANNELS 3 Zrotation Yrotation Xrotation
					End Site
					{
						OFFSET 0.000000 0.000000 0.000000 
					}
				}
			}
			JOINT LeftArm
			{
				OFFSET 3.362410 1.200890 -0.311210 
				CHANNELS 3 Zrotation Yrotation Xrotation
				JOINT LeftForeArm
				{
					OFFSET 4.983000 -0.000000 -0.000000 
					CHANNELS 3 Zrotation Yrotation Xrotation
					JOINT LeftHand
					{
						OFFSET 3.483560 -0.000000 -0.000000 
						CHANNELS 3 Zrotation Yrotation Xrotation
						JOINT LeftHandIndex1
						{
							OFFSET 0.715260 -0.000000 -0.000000 
							CHANNELS 3 Zrotation Yrotation Xrotation
							End Site
							{
								OFFSET 0.000000 0.000000 0.000000 
							}
						}
					}
				}
			}
			JOINT RightArm
			{
				OFFSET -3.136600 1.374050 -0.404650 
				CHANNELS 3 Zrotation Yrotation Xrotation
				JOINT RightForeArm
				{
					OFFSET -5.241900 -0.000000 -0.000000 
					CHANNELS 3 Zrotation Yrotation Xrotation
					JOINT RightHand
					{
						OFFSET -3.444170 -0.000000 -0.000000 
						CHANNELS 3 Zrotation Yrotation Xrotation
						JOINT RightHandIndex1
						{
							OFFSET -0.622530 -0.000000 -0.000000 
							CHANNELS 3 Zrotation Yrotation Xrotation
							End Site
							{
								OFFSET 0.000000 0.000000 0.000000 
							}
						}
					}
				}
			}
		}
	}
}
MOTION
Frames: 6
Frame Time: 0.008333
4.847296 15.567984 -2.364512 -5.013435 -25.555210 3.808602 -7.023664 24.067280 -31.185737 -11.347894 20.179878 24.875053 -2.094734 5.900898 -13.979472 -1.695471 1.521052 -1.935193 -7.690656 -14.457353 4.263907 27.462605 -12.383063 29.405265 -2.255503 0.490812 -14.024179 -3.940504 2.155685 -0.031928 -1.053464 -2.066814 0.885371 1.660671 -4.030588 -8.535977 -1.046066 3.175195 -0.957591 2.417991 2.013295 2.032458 -36.497287 -39.098883 5.106518 69.843170 -64.386961 3.066596 3.730466 3.270539 -4.128345 4.600956 1.365648 -4.006744 98.045242 28.557960 43.915557 -87.637482 71.199969 -2.710992 -0.369876 -2.122952 -4.712063 -3.140345 -1.774317 -4.185243
4.832201 15.566452 -2.370173 -4.986884 -25.394220 3.820341 -8.878757 19.534320 -32.241988 -6.600651 18.381678 21.059332 2.862182 3.052856 -16.494796 4.366728 -1.106873 0.193644 -6.986863 -11.003474 9.645841 27.788562 -20.089142 27.809477 3.637547 3.781036 -12.465939 1.752894 -0.452914 0.955100 4.087081 -0.378762 -5.213979 -1.647443 -3.240994 -11.543696 -3.583815 1.749785 2.447631 2.220576 4.370120 4.744429 -42.069154 -35.174914 6.381986 76.477910 -60.112227 -1.821048 -2.895706 -1.172246 2.769363 -0.232092 -4.988847 3.257755 101.926973 24.575291 35.346873 -90.139782 71.092895 1.134067 -4.476120 1.178916 2.410129 -4.544823 -3.340368 0.020347
4.817107 15.564921 -2.375835 -4.960369 -25.233309 3.832239 -6.657629 23.232870 -29.524250 -10.053070 17.760016 19.341197 0.968779 5.537846 -18.791791 0.540305 0.848061 -2.030692 -7.495854 -14.807340 7.396834 26.159530 -11.950123 24.216865 -3.634583 3.849102 -12.591660 -2.591420 0.558621 -2.643024 0.799592 4.346789 -1.894113 -5.933194 -1.634765 -6.792375 -4.456679 4.658087 2.772144 -4.409077 1.852771 4.277822 -42.406991 -31.195035 11.022518 68.241741 -62.229064 -3.687932 4.368196 -1.112904 -0.648714 -2.432153 0.943904 2.234132 94.686617 29.336465 41.062185 -92.023056 65.908768 3.092727 2.765668 0.499206 3.358492 3.352464 1.670575 0.898632
4.802012 15.563389 -2.381496 -4.933893 -25.072481 3.844295 -8.384826 20.412400 -33.827784 -8.051709 18.438861 26.355358 -3.586435 8.130607 -12.434789 3.453804 4.605621 -0.713584 -7.352837 -15.886567 2.087189 33.962357 -20.393510 26.010723 1.062686 -5.797975 -9.415280 -0.694062 0.521293 0.728496 5.206322 1.823567 -5.837359 0.705610 2.257442 -8.926597 0.701384 -1.380735 2.314586 2.003386 0.940237 2.784846 -43.009364 -31.467912 3.028686 72.443258 -64.738139 1.242916 1.770269 -4.476111 1.290229 -2.122555 4.148669 -4.737135 93.530319 28.430257 37.306782 -86.296605 64.985087 4.781962 -4.565918 3.169091 4.078622 2.835329 0.396815 -3.991441
4.786918 15.561857 -2.387158 -4.907456 -24.911741 3.856510 -3.930327 22.705526 -35.221227 -6.298885 19.552614 26.620592 -3.394038 4.418660 -17.760341 -1.865550 -2.804903 0.185788 -0.428271 -12.711531 9.741107 27.633787 -15.995879 25.294780 2.312267 -4.624947 -14.131189 -4.377791 -4.511762 4.312955 0.608996 0.529490 -8.555233 3.006745 -4.417373 -5.096068 -2.477386 1.637416 0.035241 3.004980 -1.125028 -4.042104 -39.591790 -36.540830 3.229857 68.014138 -65.124465 2.158105 2.268788 -1.898790 1.739560 2.507648 -1.822503 1.184616 96.216066 26.212590 37.605804 -87.242403 71.165267 -0.871891 -1.188560 -3.861523 4.716126 2.100925 2.627475 4.107919
4.771644 15.560423 -2.392403 -4.886722 -24.730591 3.870037 -9.177602 19.482482 -30.896957 -10.819512 19.305149 18.626882 3.446394 6.809603 -10.308471 -3.172050 -2.022470 -3.064159 -1.452319 -12.147336 10.209400 30.011607 -21.033261 26.478682 -3.756528 -4.515211 -9.206327 -0.275889 1.985099 3.748919 -3.275748 2.229147 -5.443276 -6.684584 -4.402059 -12.106683 -2.528640 -0.388961 -2.543033 0.326194 0.808322 1.178592 -41.469545 -34.387313 9.251200 72.479145 -68.808300 -4.405333 -4.547445 -2.193042 1.437770 4.789981 -3.116767 -4.224069 100.200285 29.439081 38.793577 -87.242808 64.758554 -0.170537 -3.487533 1.020271 -1.329327 -1.377694 2.688421 -0.765716
